<svg xmlns="http://www.w3.org/2000/svg" xmlns:xlink="http://www.w3.org/1999/xlink" width="673.555542" height="302.594849" viewBox="0 0 673.556 302.595"><path d="M0 0L295.62 0L295.62 208.805L0 208.805L0 0Z" fill="#FFCFD5" fill-opacity="1.000000" transform="matrix(1 0 0 1 46.8945 46.8949)"/><path d="M0 0L295.62 0L295.62 208.805L0 208.805L0 0Z" fill="none" stroke="#19191A" stroke-opacity="1.000000" stroke-width="2" stroke-dasharray="0 0" transform="matrix(1 0 0 1 46.8945 46.8949)"/><path d="M0 0L295.62 0L295.62 208.805L0 208.805L0 0Z" fill="#FFCFD5" fill-opacity="1.000000" transform="matrix(1 0 0 1 46.8945 46.8949)"/><path d="M0 0L295.62 0L295.62 208.805L0 208.805L0 0Z" fill="none" stroke="#19191A" stroke-opacity="1.000000" stroke-width="2" stroke-dasharray="0 0" transform="matrix(1 0 0 1 46.8945 46.8949)"/><path d="M15 0L219.631 0C227.911 0 234.631 6.72 234.631 15L234.631 95C234.631 103.28 227.911 110 219.631 110L15 110C6.72 110 0 103.28 0 95L0 15C0 6.72 6.72 0 15 0Z" fill="#C0E9FF" fill-opacity="1.000000" transform="matrix(1 0 0 1 77.3955 127.323)"/><path d="M15 0L219.631 0C227.911 0 234.631 6.72 234.631 15L234.631 95C234.631 103.28 227.911 110 219.631 110L15 110C6.72 110 0 103.28 0 95L0 15C0 6.72 6.72 0 15 0Z" fill="none" stroke="#19191A" stroke-opacity="1.000000" stroke-width="2" stroke-dasharray="0 0" transform="matrix(1 0 0 1 77.3955 127.323)"/><path d="M15 0L219.631 0C227.911 0 234.631 6.72 234.631 15L234.631 95C234.631 103.28 227.911 110 219.631 110L15 110C6.72 110 0 103.28 0 95L0 15C0 6.72 6.72 0 15 0Z" fill="#C0E9FF" fill-opacity="1.000000" transform="matrix(1 0 0 1 77.3955 127.323)"/><path d="M15 0L219.631 0C227.911 0 234.631 6.72 234.631 15L234.631 95C234.631 103.28 227.911 110 219.631 110L15 110C6.72 110 0 103.28 0 95L0 15C0 6.72 6.72 0 15 0Z" fill="none" stroke="#19191A" stroke-opacity="1.000000" stroke-width="2" stroke-dasharray="0 0" transform="matrix(1 0 0 1 77.3955 127.323)"/><path d="M15 0L170 0C178.28 0 185 6.72 185 15L185 35C185 43.28 178.28 50 170 50L15 50C6.72 50 0 43.28 0 35L0 15C0 6.72 6.72 0 15 0Z" fill="#BCF7C6" fill-opacity="1.000000" transform="matrix(1 0 0 1 102.205 175.57)"/><path d="M15 0L170 0C178.28 0 185 6.72 185 15L185 35C185 43.28 178.28 50 170 50L15 50C6.72 50 0 43.28 0 35L0 15C0 6.72 6.72 0 15 0Z" fill="none" stroke="#19191A" stroke-opacity="1.000000" stroke-width="2" stroke-dasharray="0 0" transform="matrix(1 0 0 1 102.205 175.57)"/><clipPath id="clip_10_3_0"><path d="M107.305 189.67L282.105 189.67L282.105 229.47L107.305 229.47L107.305 189.67Z"/></clipPath><g clip-path="url(#clip_10_3_0)"><path d="M51.0033 32.0585L58.4511 32.0585L58.4511 31.2074L51.0033 31.2074L51.0033 32.0585ZM58.8293 32.0585L66.277 32.0585L66.277 31.2074L58.8293 31.2074L58.8293 32.0585ZM69.7485 30.2812C71.5429 30.2812 72.5205 29.2592 72.5205 28.0287C72.5205 26.5863 71.3037 26.1386 70.1997 25.7182C69.3452 25.3969 68.518 25.1303 68.518 24.4022C68.518 23.8144 68.9521 23.3085 69.9057 23.3085C70.5893 23.3085 71.1225 23.5888 71.6557 23.9818L72.271 23.1547C71.6694 22.6933 70.8423 22.3036 69.9057 22.3036C68.2514 22.3036 67.2876 23.2538 67.2876 24.4569C67.2876 25.7455 68.4907 26.265 69.5537 26.6547C70.3945 26.9794 71.29 27.328 71.29 28.0971C71.29 28.7567 70.8012 29.2865 69.7929 29.2865C68.8838 29.2865 68.1968 28.9242 67.5371 28.391L66.9082 29.2318C67.6362 29.8334 68.6719 30.2812 69.7485 30.2812ZM76.3992 30.2812C76.8606 30.2812 77.3665 30.141 77.8006 30.0009L77.5477 29.0507C77.2947 29.1464 76.9461 29.2455 76.6795 29.2455C75.7977 29.2455 75.5037 28.7123 75.5037 27.7758L75.5037 23.5341L77.5613 23.5341L77.5613 22.4984L75.5037 22.4984L75.5037 20.369L74.4407 20.369L74.2869 22.4984L73.0975 22.5668L73.0975 23.5341L74.2288 23.5341L74.2288 27.7484C74.2288 29.2729 74.7757 30.2812 76.3992 30.2812ZM79.2846 30.1L80.5595 30.1L80.5595 25.2123C81.062 23.9135 81.8447 23.4623 82.477 23.4623C82.7846 23.4623 82.9658 23.4931 83.2187 23.5888L83.4546 22.4711C83.2187 22.3446 82.9795 22.3036 82.6445 22.3036C81.79 22.3036 81.021 22.9188 80.4878 23.8827L80.4467 23.8827L80.3339 22.4984L79.2846 22.4984L79.2846 30.1ZM87.5157 30.2812C89.3785 30.2812 91.0431 28.8251 91.0431 26.3061C91.0431 23.7733 89.3785 22.3036 87.5157 22.3036C85.6529 22.3036 83.9884 23.7733 83.9884 26.3061C83.9884 28.8251 85.6529 30.2812 87.5157 30.2812ZM87.5157 29.2182C86.1998 29.2182 85.318 28.0561 85.318 26.3061C85.318 24.5561 86.1998 23.3666 87.5157 23.3666C88.8316 23.3666 89.7271 24.5561 89.7271 26.3061C89.7271 28.0561 88.8316 29.2182 87.5157 29.2182ZM93.0466 30.1L94.3215 30.1L94.3215 24.5834C95.0905 23.8144 95.6203 23.4213 96.4064 23.4213C97.4147 23.4213 97.8488 24.0229 97.8488 25.4516L97.8488 30.1L99.1203 30.1L99.1203 25.2841C99.1203 23.3393 98.3957 22.3036 96.7995 22.3036C95.7604 22.3036 94.9777 22.8744 94.2497 23.5888L94.2087 23.5888L94.0959 22.4984L93.0466 22.4984L93.0466 30.1ZM104.161 33.6C106.516 33.6 107.999 32.3832 107.999 30.9682C107.999 29.7206 107.117 29.1635 105.353 29.1635L103.867 29.1635C102.845 29.1635 102.537 28.8251 102.537 28.3363C102.537 27.9159 102.749 27.663 103.029 27.4271C103.364 27.5946 103.785 27.6903 104.161 27.6903C105.702 27.6903 106.933 26.6684 106.933 25.0448C106.933 24.3886 106.683 23.828 106.317 23.4794L107.873 23.4794L107.873 22.4984L105.227 22.4984C104.96 22.3993 104.581 22.3036 104.161 22.3036C102.623 22.3036 101.307 23.3529 101.307 25.0175C101.307 25.9267 101.795 26.6547 102.301 27.0614L102.301 27.1195C101.908 27.3964 101.447 27.9022 101.447 28.5312C101.447 29.1327 101.741 29.5395 102.147 29.7787L102.147 29.8334C101.433 30.2948 101.013 30.9135 101.013 31.5561C101.013 32.872 102.301 33.6 104.161 33.6ZM104.161 26.8256C103.279 26.8256 102.537 26.1249 102.537 25.0175C102.537 23.8964 103.265 23.2401 104.161 23.2401C105.06 23.2401 105.77 23.9135 105.77 25.0175C105.77 26.1249 105.029 26.8256 104.161 26.8256ZM104.345 32.7318C102.957 32.7318 102.13 32.1986 102.13 31.3886C102.13 30.9408 102.37 30.4931 102.916 30.1C103.251 30.1854 103.617 30.2265 103.897 30.2265L105.213 30.2265C106.222 30.2265 106.765 30.4623 106.765 31.163C106.765 31.9628 105.801 32.7318 104.345 32.7318ZM114.604 30.2812C116.399 30.2812 117.376 29.2592 117.376 28.0287C117.376 26.5863 116.16 26.1386 115.056 25.7182C114.201 25.3969 113.374 25.1303 113.374 24.4022C113.374 23.8144 113.808 23.3085 114.762 23.3085C115.445 23.3085 115.978 23.5888 116.512 23.9818L117.127 23.1547C116.525 22.6933 115.698 22.3036 114.762 22.3036C113.107 22.3036 112.143 23.2538 112.143 24.4569C112.143 25.7455 113.347 26.265 114.41 26.6547C115.25 26.9794 116.146 27.328 116.146 28.0971C116.146 28.7567 115.657 29.2865 114.649 29.2865C113.74 29.2865 113.053 28.9242 112.393 28.391L111.764 29.2318C112.492 29.8334 113.528 30.2812 114.604 30.2812ZM122.236 30.2812C123.272 30.2812 124.086 29.9325 124.755 29.4984L124.294 28.6576C123.733 29.037 123.132 29.2592 122.39 29.2592C120.948 29.2592 119.953 28.2235 119.871 26.6L124.995 26.6C125.022 26.4188 125.049 26.1522 125.049 25.872C125.049 23.7016 123.959 22.3036 122.024 22.3036C120.261 22.3036 118.596 23.8417 118.596 26.3061C118.596 28.8114 120.22 30.2812 122.236 30.2812ZM119.857 25.6908C120.011 24.1903 120.961 23.3256 122.042 23.3256C123.231 23.3256 123.928 24.1493 123.928 25.6908L119.857 25.6908ZM128.27 30.2812C128.605 30.2812 128.83 30.2401 129.011 30.1684L128.83 29.1908C128.69 29.2182 128.635 29.2182 128.564 29.2182C128.369 29.2182 128.201 29.0644 128.201 28.6713L128.201 18.9574L126.926 18.9574L126.926 28.5893C126.926 29.6659 127.319 30.2812 128.27 30.2812ZM134.611 19.0258C134.249 18.872 133.801 18.7729 133.336 18.7729C131.826 18.7729 131.125 19.7401 131.125 21.2816L131.125 22.4984L130.089 22.5668L130.089 23.5341L131.125 23.5341L131.125 30.1L132.4 30.1L132.4 23.5341L134.01 23.5341L134.01 22.4984L132.4 22.4984L132.4 21.2953C132.4 20.3144 132.748 19.7948 133.476 19.7948C133.743 19.7948 134.051 19.8666 134.331 19.9931L134.611 19.0258Z" fill="#19191A" fill-opacity="1.000000" transform="matrix(1 0 0 1 102.205 175.57)"/></g><path d="M15 0L170 0C178.28 0 185 6.72 185 15L185 35C185 43.28 178.28 50 170 50L15 50C6.72 50 0 43.28 0 35L0 15C0 6.72 6.72 0 15 0Z" fill="#BCF7C6" fill-opacity="1.000000" transform="matrix(1 0 0 1 102.205 175.57)"/><path d="M15 0L170 0C178.28 0 185 6.72 185 15L185 35C185 43.28 178.28 50 170 50L15 50C6.72 50 0 43.28 0 35L0 15C0 6.72 6.72 0 15 0Z" fill="none" stroke="#19191A" stroke-opacity="1.000000" stroke-width="2" stroke-dasharray="0 0" transform="matrix(1 0 0 1 102.205 175.57)"/><clipPath id="clip_10_3_0"><path d="M107.305 189.67L282.105 189.67L282.105 229.47L107.305 229.47L107.305 189.67Z"/></clipPath><g clip-path="url(#clip_10_3_0)"><path d="M51.0033 32.0585L58.4511 32.0585L58.4511 31.2074L51.0033 31.2074L51.0033 32.0585ZM58.8293 32.0585L66.277 32.0585L66.277 31.2074L58.8293 31.2074L58.8293 32.0585ZM69.7485 30.2812C71.5429 30.2812 72.5205 29.2592 72.5205 28.0287C72.5205 26.5863 71.3037 26.1386 70.1997 25.7182C69.3452 25.3969 68.518 25.1303 68.518 24.4022C68.518 23.8144 68.9521 23.3085 69.9057 23.3085C70.5893 23.3085 71.1225 23.5888 71.6557 23.9818L72.271 23.1547C71.6694 22.6933 70.8423 22.3036 69.9057 22.3036C68.2514 22.3036 67.2876 23.2538 67.2876 24.4569C67.2876 25.7455 68.4907 26.265 69.5537 26.6547C70.3945 26.9794 71.29 27.328 71.29 28.0971C71.29 28.7567 70.8012 29.2865 69.7929 29.2865C68.8838 29.2865 68.1968 28.9242 67.5371 28.391L66.9082 29.2318C67.6362 29.8334 68.6719 30.2812 69.7485 30.2812ZM76.3992 30.2812C76.8606 30.2812 77.3665 30.141 77.8006 30.0009L77.5477 29.0507C77.2947 29.1464 76.9461 29.2455 76.6795 29.2455C75.7977 29.2455 75.5037 28.7123 75.5037 27.7758L75.5037 23.5341L77.5613 23.5341L77.5613 22.4984L75.5037 22.4984L75.5037 20.369L74.4407 20.369L74.2869 22.4984L73.0975 22.5668L73.0975 23.5341L74.2288 23.5341L74.2288 27.7484C74.2288 29.2729 74.7757 30.2812 76.3992 30.2812ZM79.2846 30.1L80.5595 30.1L80.5595 25.2123C81.062 23.9135 81.8447 23.4623 82.477 23.4623C82.7846 23.4623 82.9658 23.4931 83.2187 23.5888L83.4546 22.4711C83.2187 22.3446 82.9795 22.3036 82.6445 22.3036C81.79 22.3036 81.021 22.9188 80.4878 23.8827L80.4467 23.8827L80.3339 22.4984L79.2846 22.4984L79.2846 30.1ZM87.5157 30.2812C89.3785 30.2812 91.0431 28.8251 91.0431 26.3061C91.0431 23.7733 89.3785 22.3036 87.5157 22.3036C85.6529 22.3036 83.9884 23.7733 83.9884 26.3061C83.9884 28.8251 85.6529 30.2812 87.5157 30.2812ZM87.5157 29.2182C86.1998 29.2182 85.318 28.0561 85.318 26.3061C85.318 24.5561 86.1998 23.3666 87.5157 23.3666C88.8316 23.3666 89.7271 24.5561 89.7271 26.3061C89.7271 28.0561 88.8316 29.2182 87.5157 29.2182ZM93.0466 30.1L94.3215 30.1L94.3215 24.5834C95.0905 23.8144 95.6203 23.4213 96.4064 23.4213C97.4147 23.4213 97.8488 24.0229 97.8488 25.4516L97.8488 30.1L99.1203 30.1L99.1203 25.2841C99.1203 23.3393 98.3957 22.3036 96.7995 22.3036C95.7604 22.3036 94.9777 22.8744 94.2497 23.5888L94.2087 23.5888L94.0959 22.4984L93.0466 22.4984L93.0466 30.1ZM104.161 33.6C106.516 33.6 107.999 32.3832 107.999 30.9682C107.999 29.7206 107.117 29.1635 105.353 29.1635L103.867 29.1635C102.845 29.1635 102.537 28.8251 102.537 28.3363C102.537 27.9159 102.749 27.663 103.029 27.4271C103.364 27.5946 103.785 27.6903 104.161 27.6903C105.702 27.6903 106.933 26.6684 106.933 25.0448C106.933 24.3886 106.683 23.828 106.317 23.4794L107.873 23.4794L107.873 22.4984L105.227 22.4984C104.96 22.3993 104.581 22.3036 104.161 22.3036C102.623 22.3036 101.307 23.3529 101.307 25.0175C101.307 25.9267 101.795 26.6547 102.301 27.0614L102.301 27.1195C101.908 27.3964 101.447 27.9022 101.447 28.5312C101.447 29.1327 101.741 29.5395 102.147 29.7787L102.147 29.8334C101.433 30.2948 101.013 30.9135 101.013 31.5561C101.013 32.872 102.301 33.6 104.161 33.6ZM104.161 26.8256C103.279 26.8256 102.537 26.1249 102.537 25.0175C102.537 23.8964 103.265 23.2401 104.161 23.2401C105.06 23.2401 105.77 23.9135 105.77 25.0175C105.77 26.1249 105.029 26.8256 104.161 26.8256ZM104.345 32.7318C102.957 32.7318 102.13 32.1986 102.13 31.3886C102.13 30.9408 102.37 30.4931 102.916 30.1C103.251 30.1854 103.617 30.2265 103.897 30.2265L105.213 30.2265C106.222 30.2265 106.765 30.4623 106.765 31.163C106.765 31.9628 105.801 32.7318 104.345 32.7318ZM114.604 30.2812C116.399 30.2812 117.376 29.2592 117.376 28.0287C117.376 26.5863 116.16 26.1386 115.056 25.7182C114.201 25.3969 113.374 25.1303 113.374 24.4022C113.374 23.8144 113.808 23.3085 114.762 23.3085C115.445 23.3085 115.978 23.5888 116.512 23.9818L117.127 23.1547C116.525 22.6933 115.698 22.3036 114.762 22.3036C113.107 22.3036 112.143 23.2538 112.143 24.4569C112.143 25.7455 113.347 26.265 114.41 26.6547C115.25 26.9794 116.146 27.328 116.146 28.0971C116.146 28.7567 115.657 29.2865 114.649 29.2865C113.74 29.2865 113.053 28.9242 112.393 28.391L111.764 29.2318C112.492 29.8334 113.528 30.2812 114.604 30.2812ZM122.236 30.2812C123.272 30.2812 124.086 29.9325 124.755 29.4984L124.294 28.6576C123.733 29.037 123.132 29.2592 122.39 29.2592C120.948 29.2592 119.953 28.2235 119.871 26.6L124.995 26.6C125.022 26.4188 125.049 26.1522 125.049 25.872C125.049 23.7016 123.959 22.3036 122.024 22.3036C120.261 22.3036 118.596 23.8417 118.596 26.3061C118.596 28.8114 120.22 30.2812 122.236 30.2812ZM119.857 25.6908C120.011 24.1903 120.961 23.3256 122.042 23.3256C123.231 23.3256 123.928 24.1493 123.928 25.6908L119.857 25.6908ZM128.27 30.2812C128.605 30.2812 128.83 30.2401 129.011 30.1684L128.83 29.1908C128.69 29.2182 128.635 29.2182 128.564 29.2182C128.369 29.2182 128.201 29.0644 128.201 28.6713L128.201 18.9574L126.926 18.9574L126.926 28.5893C126.926 29.6659 127.319 30.2812 128.27 30.2812ZM134.611 19.0258C134.249 18.872 133.801 18.7729 133.336 18.7729C131.826 18.7729 131.125 19.7401 131.125 21.2816L131.125 22.4984L130.089 22.5668L130.089 23.5341L131.125 23.5341L131.125 30.1L132.4 30.1L132.4 23.5341L134.01 23.5341L134.01 22.4984L132.4 22.4984L132.4 21.2953C132.4 20.3144 132.748 19.7948 133.476 19.7948C133.743 19.7948 134.051 19.8666 134.331 19.9931L134.611 19.0258Z" fill="#19191A" fill-opacity="1.000000" transform="matrix(1 0 0 1 102.205 175.57)"/></g><path d="M5.95898 19.9517Q7.60051 19.9517 8.71256 18.6658Q9.92285 17.2663 9.92285 14.9419Q9.92285 12.7512 8.97975 11.5084Q8.03036 10.2573 6.30176 10.2573Q4.92541 10.2573 3.42405 11.5719L2.93668 11.9987L3.0148 9.58903L3.2959 9.59814L3.01465 9.59814L3.01465 5.67383L3.2959 5.67383L3.2959 5.95508L1.65674 5.95508L1.65674 5.67383L1.93799 5.67383L1.93799 20L1.65674 20L1.65674 19.7188L2.9707 19.7188L2.9707 20L2.69233 19.9599L2.8721 18.7124L3.2776 18.7124L3.35817 18.786Q4.6339 19.9517 5.95898 19.9517ZM5.95898 20.5142Q4.41561 20.5142 2.97874 19.2013L3.16846 18.9937L3.16846 19.2749L3.11572 19.2749L3.11572 18.9937L3.3941 19.0338L3.21433 20.2812L1.37549 20.2812L1.37549 5.39258L3.57715 5.39258L3.57715 9.6027L3.51987 11.3695L3.23877 11.3604L3.05349 11.1488Q4.71395 9.69482 6.30176 9.69482Q8.30963 9.69482 9.42784 11.1684Q10.4854 12.5619 10.4854 14.9419Q10.4854 17.4757 9.13803 19.0337Q7.85773 20.5142 5.95898 20.5142ZM5.68652 19.1475Q4.35456 19.1475 3.10978 18.0488L3.01465 17.9648L3.01465 12.5882L3.10287 12.5049Q4.61381 11.0791 5.92383 11.0791Q8.77588 11.0791 8.77588 14.9771Q8.77588 16.8607 7.924 18.0013Q7.06788 19.1475 5.68652 19.1475ZM5.68652 18.585Q6.78593 18.585 7.47334 17.6646Q8.21338 16.6738 8.21338 14.9771Q8.21338 11.6416 5.92383 11.6416Q4.83731 11.6416 3.48893 12.914L3.2959 12.7095L3.57715 12.7095L3.57715 17.8379L3.2959 17.8379L3.48202 17.627Q4.5673 18.585 5.68652 18.585ZM5.68652 18.8662C7.30811 18.8662 8.49463 17.4072 8.49463 14.9771C8.49463 12.8193 7.77393 11.3604 5.92383 11.3604C5.09326 11.3604 4.23193 11.8262 3.2959 12.7095L3.2959 17.8379C4.15723 18.5981 5.04053 18.8662 5.68652 18.8662ZM5.95898 20.2329C5.05811 20.2329 4.03418 19.7847 3.16846 18.9937L3.11572 18.9937L2.9707 20L1.65674 20L1.65674 5.67383L3.2959 5.67383L3.2959 9.59814L3.23877 11.3604C4.12207 10.5869 5.2207 9.97607 6.30176 9.97607C8.8374 9.97607 10.2041 11.9536 10.2041 14.9419C10.2041 18.3081 8.20898 20.2329 5.95898 20.2329ZM14.5077 19.9517Q15.0416 19.9517 15.3577 19.8264L15.4613 20.0879L15.1848 20.1391L14.9519 18.8823L15.2284 18.8311L15.2823 19.1071Q15.0754 19.1475 14.8857 19.1475Q14.1386 19.1475 14.1386 18.1631L14.1386 5.67383L14.4198 5.67383L14.4198 5.95508L12.7807 5.95508L12.7807 5.67383L13.0619 5.67383L13.0619 18.0576Q13.0619 19.9517 14.5077 19.9517ZM14.5077 20.5142Q12.4994 20.5142 12.4994 18.0576L12.4994 5.39258L14.7011 5.39258L14.7011 18.1631Q14.7011 18.585 14.8857 18.585Q15.0211 18.585 15.1746 18.555L15.4532 18.5006L15.78 20.2641L15.5649 20.3494Q15.149 20.5142 14.5077 20.5142ZM14.5077 20.2329C13.286 20.2329 12.7807 19.4419 12.7807 18.0576L12.7807 5.67383L14.4198 5.67383L14.4198 18.1631C14.4198 18.6685 14.6352 18.8662 14.8857 18.8662C14.9779 18.8662 15.0482 18.8662 15.2284 18.8311L15.4613 20.0879C15.2284 20.1802 14.9384 20.2329 14.5077 20.2329ZM21.7075 19.9517Q23.4712 19.9517 24.6699 18.6977Q25.9614 17.3467 25.9614 15.1221Q25.9614 12.8835 24.6692 11.5215Q23.4697 10.2573 21.7075 10.2573Q19.9453 10.2573 18.7458 11.5215Q17.4536 12.8835 17.4536 15.1221Q17.4536 17.3467 18.7451 18.6977Q19.9438 19.9517 21.7075 19.9517ZM21.7075 20.5142Q19.7034 20.5142 18.3385 19.0864Q16.8911 17.5723 16.8911 15.1221Q16.8911 12.6591 18.3378 11.1344Q19.7036 9.69483 21.7075 9.69482Q23.7115 9.69482 25.0773 11.1344Q26.5239 12.6591 26.5239 15.1221Q26.5239 17.5723 25.0765 19.0864Q23.7116 20.5142 21.7075 20.5142ZM21.7075 19.1475Q20.2975 19.1475 19.4359 18.0075Q18.6006 16.9024 18.6006 15.1221Q18.6006 13.3389 19.4348 12.2205Q20.2992 11.0615 21.7075 11.0615Q23.1169 11.0615 23.9883 12.2196Q24.832 13.3408 24.832 15.1221Q24.832 16.9007 23.9873 18.0084Q23.1187 19.1475 21.7075 19.1475ZM21.7075 18.585Q22.8402 18.585 23.54 17.6673Q24.2695 16.7106 24.2695 15.1221Q24.2695 13.5288 23.5389 12.5578Q22.8362 11.624 21.7075 11.624Q20.5814 11.624 19.8857 12.5568Q19.1631 13.5256 19.1631 15.1221Q19.1631 16.7138 19.8846 17.6683Q20.5775 18.585 21.7075 18.585ZM21.7075 18.8662C23.3994 18.8662 24.5508 17.3721 24.5508 15.1221C24.5508 12.8721 23.3994 11.3428 21.7075 11.3428C20.0156 11.3428 18.8818 12.8721 18.8818 15.1221C18.8818 17.3721 20.0156 18.8662 21.7075 18.8662ZM21.7075 20.2329C19.3125 20.2329 17.1724 18.3608 17.1724 15.1221C17.1724 11.8657 19.3125 9.97607 21.7075 9.97607C24.1025 9.97607 26.2427 11.8657 26.2427 15.1221C26.2427 18.3608 24.1025 20.2329 21.7075 20.2329ZM32.6682 19.9517Q34.3601 19.9517 35.6288 18.7865L35.8191 18.9937L35.5822 19.1453L34.879 18.0466L35.1159 17.895L35.3056 18.1027Q34.1621 19.1475 32.8132 19.1475Q31.3277 19.1475 30.4091 18.0151Q29.5085 16.905 29.5085 15.1221Q29.5085 13.3467 30.4408 12.2103Q31.3832 11.0615 32.8484 11.0615Q33.949 11.0615 35.0018 12.0179L34.8127 12.2261L34.5897 12.0548L35.4334 10.9561L35.6565 11.1274L35.4706 11.3385Q34.2427 10.2573 32.7956 10.2573Q30.9496 10.2573 29.7006 11.5253Q28.3615 12.8848 28.3615 15.1221Q28.3615 17.3775 29.6082 18.699Q30.7899 19.9517 32.6682 19.9517ZM32.6682 20.5142Q30.5472 20.5142 29.199 19.085Q27.799 17.601 27.799 15.1221Q27.799 12.6543 29.2999 11.1306Q30.7141 9.69482 32.7956 9.69482Q34.455 9.69482 35.8423 10.9164L36.0397 11.0902L34.8497 12.6396L34.6236 12.4343Q33.7317 11.624 32.8484 11.624Q31.6493 11.624 30.8757 12.5671Q30.071 13.5479 30.071 15.1221Q30.071 16.7055 30.8459 17.6607Q31.5957 18.585 32.8132 18.585Q33.9438 18.585 34.9262 17.6874L35.1728 17.4621L36.1833 19.041L36.0093 19.2008Q34.5792 20.5142 32.6682 20.5142ZM32.6682 20.2329C30.0798 20.2329 28.0803 18.3608 28.0803 15.1221C28.0803 11.8657 30.2951 9.97607 32.7956 9.97607C34.0744 9.97607 34.9577 10.5122 35.6565 11.1274L34.8127 12.2261C34.237 11.7031 33.6438 11.3428 32.8484 11.3428C31.0862 11.3428 29.7898 12.8721 29.7898 15.1221C29.7898 17.3721 31.0158 18.8662 32.8132 18.8662C33.7141 18.8662 34.5051 18.4531 35.1159 17.895L35.8191 18.9937C34.9577 19.7847 33.8415 20.2329 32.6682 20.2329ZM37.9805 19.7188L39.5977 19.7188L39.5977 20L39.3165 20L39.3165 17.3207L41.4737 14.8073L44.5402 19.854L44.2999 20L44.2999 19.7188L46.0796 19.7188L46.0796 20L45.8421 20.1506L42.0232 14.1281L45.4331 10.0462L45.649 10.2266L45.649 10.5078L43.8296 10.5078L43.8296 10.2266L44.048 10.4038L39.7712 15.6714L39.3165 15.6714L39.3165 5.67383L39.5977 5.67383L39.5977 5.95508L37.9805 5.95508L37.9805 5.67383L38.2618 5.67383L38.2618 20L37.9805 20L37.9805 19.7188ZM37.6993 20.2812L37.6993 5.39258L39.879 5.39258L39.879 15.3901L39.5977 15.3901L39.5977 15.1089L39.6373 15.1089L39.6373 15.3901L39.4189 15.2129L43.6957 9.94531L46.2504 9.94531L42.5865 14.3312L42.3707 14.1509L42.6082 14.0003L46.591 20.2812L44.1416 20.2812L41.1943 15.4307L41.4346 15.2847L41.648 15.4678L39.8111 17.608L39.5977 17.4248L39.879 17.4248L39.879 20.2812L37.9805 20.2812L37.6993 20.2812ZM37.9805 20L37.9805 5.67383L39.5977 5.67383L39.5977 15.3901L39.6373 15.3901L43.8296 10.2266L45.649 10.2266L42.3707 14.1509L46.0796 20L44.2999 20L41.4346 15.2847L39.5977 17.4248L39.5977 20L37.9805 20Z" fill="#19191A" fill-opacity="1.000000" transform="matrix(1 0 0 1 171.125 140.745)"/><path d="M5.61328 26.9355Q7.69712 26.9355 8.89616 25.8884Q9.99023 24.933 9.99023 23.4492Q9.99023 22.0054 8.87702 21.1247Q8.17725 20.5711 6.31346 19.8616Q6.26981 19.845 6.25327 19.8387Q6.17511 19.8093 6.01627 19.7501Q4.62559 19.2311 4.09981 18.8763Q3.12891 18.2211 3.12891 17.2324Q3.12891 14.9824 5.88281 14.9824Q7.44026 14.9824 9.10533 16.2099L8.88281 16.5117L8.58192 16.2879L9.63661 14.8699L9.9375 15.0938L9.70927 15.3913Q7.90816 14.0098 5.88281 14.0098Q3.95264 14.0098 2.82075 14.9904Q1.76953 15.9012 1.76953 17.3262Q1.76953 19.4078 5.40836 20.7417Q8.63086 21.9861 8.63086 23.5664Q8.63086 25.9805 5.68945 25.9805Q3.58893 25.9805 1.58653 24.362L1.82227 24.0703L2.12256 24.2949L1.04443 25.7363L0.744141 25.5117L0.983006 25.2226Q3.05602 26.9355 5.61328 26.9355ZM5.61328 27.6855Q2.78625 27.6855 0.505275 25.8008L0.229848 25.5732L1.75518 23.5339L2.058 23.7787Q3.85413 25.2305 5.68945 25.2305Q7.88086 25.2305 7.88086 23.5664Q7.88086 22.5004 5.15023 21.4458Q1.01953 19.9317 1.01953 17.3262Q1.01953 15.5587 2.32964 14.4236Q3.67294 13.2598 5.88281 13.2598Q8.16267 13.2598 10.1657 14.7962L10.4589 15.0211L8.96086 17.0351L8.6603 16.8136Q7.1937 15.7324 5.88281 15.7324Q3.87891 15.7324 3.87891 17.2324Q3.87891 18.152 6.27848 19.0474Q6.43843 19.1071 6.52017 19.1378Q6.54023 19.1455 6.58027 19.1607Q8.552 19.9113 9.34234 20.5365Q10.7402 21.6424 10.7402 23.4492Q10.7402 25.2738 9.38949 26.4534Q7.97851 27.6855 5.61328 27.6855ZM5.61328 27.3105C3.76758 27.3105 1.99219 26.543 0.744141 25.5117L1.82227 24.0703C2.95312 24.9844 4.13086 25.6055 5.68945 25.6055C7.41797 25.6055 8.25586 24.6973 8.25586 23.5664C8.25586 22.248 6.7207 21.6504 5.2793 21.0938C3.45703 20.4258 1.39453 19.5352 1.39453 17.3262C1.39453 15.2637 3.04688 13.6348 5.88281 13.6348C7.48828 13.6348 8.90625 14.3027 9.9375 15.0938L8.88281 16.5117C7.96875 15.8379 7.05469 15.3574 5.88281 15.3574C4.24805 15.3574 3.50391 16.2246 3.50391 17.2324C3.50391 18.4805 4.92188 18.9375 6.38672 19.4883C8.2793 20.209 10.3652 20.9766 10.3652 23.4492C10.3652 25.5586 8.68945 27.3105 5.61328 27.3105ZM18.6968 26.9355Q20.8335 26.9355 22.8112 25.654L23.0152 25.9688L22.6864 26.1492L21.8954 24.7078L22.2242 24.5273L22.4343 24.8379Q20.8155 25.9336 18.9605 25.9336Q16.9409 25.9336 15.655 24.5814Q14.3798 23.2405 14.2676 21.0189L14.2477 20.625L23.4253 20.625L23.4253 21L23.0545 20.944Q23.1441 20.3508 23.1441 19.752Q23.1441 17.0614 21.8812 15.5374Q20.6154 14.0098 18.3335 14.0098Q16.1231 14.0098 14.5373 15.735Q12.8316 17.5907 12.8316 20.4961Q12.8316 23.4758 14.5499 25.2533Q16.1762 26.9355 18.6968 26.9355ZM18.6968 27.6855Q15.8581 27.6855 14.0107 25.7746Q12.0816 23.779 12.0816 20.4961Q12.0816 17.2984 13.9852 15.2274Q15.7938 13.2598 18.3335 13.2598Q20.9679 13.2598 22.4587 15.0588Q23.8941 16.7911 23.8941 19.752Q23.8941 20.4071 23.7961 21.056L23.748 21.375L14.6421 21.375L14.6421 21L15.0166 20.9811Q15.1149 22.925 16.1985 24.0646Q17.2627 25.1836 18.9605 25.1836Q20.5855 25.1836 22.014 24.2168L22.3549 23.9861L23.5116 26.0939L23.2191 26.2835Q21.0552 27.6855 18.6968 27.6855ZM14.2456 19.4032Q14.451 17.3993 15.6262 16.1883Q16.7679 15.0117 18.3628 15.0117Q21.9722 15.0117 21.9722 19.4414L21.9722 19.8164L14.2033 19.8164L14.2456 19.4032ZM14.9917 19.4796L14.6187 19.4414L14.6187 19.0664L21.5972 19.0664L21.5972 19.4414L21.2222 19.4414Q21.2222 15.7617 18.3628 15.7617Q17.0852 15.7617 16.1644 16.7106Q15.1706 17.7348 14.9917 19.4796ZM14.6187 19.4414L21.5972 19.4414C21.5972 16.7988 20.4019 15.3867 18.3628 15.3867C16.5113 15.3867 14.8824 16.8691 14.6187 19.4414ZM18.6968 27.3105C15.2398 27.3105 12.4566 24.791 12.4566 20.4961C12.4566 16.2715 15.3101 13.6348 18.3335 13.6348C21.6499 13.6348 23.5191 16.0312 23.5191 19.752C23.5191 20.2324 23.4722 20.6895 23.4253 21L14.6421 21C14.7827 23.7832 16.4878 25.5586 18.9605 25.5586C20.232 25.5586 21.2632 25.1777 22.2242 24.5273L23.0152 25.9688C21.8667 26.7129 20.4722 27.3105 18.6968 27.3105ZM29.0396 26.9355Q29.7515 26.9355 30.173 26.7686L30.3111 27.1172L29.9424 27.1855L29.6319 25.5097L30.0006 25.4414L30.0724 25.8095Q29.7966 25.8633 29.5435 25.8633Q28.5475 25.8633 28.5475 24.5508L28.5475 7.89844L28.9225 7.89844L28.9225 8.27344L26.7369 8.27344L26.7369 7.89844L27.1119 7.89844L27.1119 24.4102Q27.1119 26.9355 29.0396 26.9355ZM29.0396 27.6855Q26.3619 27.6855 26.3619 24.4102L26.3619 7.52344L29.2975 7.52344L29.2975 24.5508Q29.2975 25.1133 29.5435 25.1133Q29.7241 25.1133 29.9288 25.0733L30.3003 25.0008L30.7361 27.3522L30.4493 27.4658Q29.8947 27.6855 29.0396 27.6855ZM29.0396 27.3105C27.4107 27.3105 26.7369 26.2559 26.7369 24.4102L26.7369 7.89844L28.9225 7.89844L28.9225 24.5508C28.9225 25.2246 29.2096 25.4883 29.5435 25.4883C29.6666 25.4883 29.7603 25.4883 30.0006 25.4414L30.3111 27.1172C30.0006 27.2402 29.6139 27.3105 29.0396 27.3105ZM39.7643 8.36081Q38.8132 7.95703 37.7253 7.95703Q34.3093 7.95703 34.3093 11.8828L34.3093 14.3198L32.1836 14.4601L32.1589 14.0859L32.5339 14.0859L32.5339 15.7441L32.1589 15.7441L32.1589 15.3691L34.3093 15.3691L34.3093 27L33.9343 27L33.9343 26.625L36.1199 26.625L36.1199 27L35.7449 27L35.7449 15.3691L38.8796 15.3691L38.8796 15.7441L38.5046 15.7441L38.5046 13.9688L38.8796 13.9688L38.8796 14.3438L35.7449 14.3438L35.7449 11.9062Q35.7449 8.95898 37.9656 8.95898Q38.7579 8.95898 39.5846 9.33201L39.4304 9.67383L39.0702 9.56946L39.5507 7.91126L39.9109 8.01562L39.7643 8.36081ZM40.3636 7.80045L39.6703 10.1935L39.2762 10.0156Q38.5965 9.70899 37.9656 9.70898Q36.4949 9.70898 36.4949 11.9062L36.4949 13.9688L36.1199 13.9688L36.1199 13.5938L39.2546 13.5938L39.2546 16.1191L36.1199 16.1191L36.1199 15.7441L36.4949 15.7441L36.4949 27.375L33.5593 27.375L33.5593 15.7441L33.9343 15.7441L33.9343 16.1191L31.7839 16.1191L31.7839 13.7349L33.9096 13.5946L33.9343 13.9688L33.5593 13.9688L33.5593 11.8828Q33.5593 7.20703 37.7253 7.20703Q38.9658 7.20703 40.0574 7.67044L40.3636 7.80045ZM39.9109 8.01562L39.4304 9.67383C38.9499 9.45703 38.4226 9.33398 37.9656 9.33398C36.7175 9.33398 36.1199 10.2246 36.1199 11.9062L36.1199 13.9688L38.8796 13.9688L38.8796 15.7441L36.1199 15.7441L36.1199 27L33.9343 27L33.9343 15.7441L32.1589 15.7441L32.1589 14.0859L33.9343 13.9688L33.9343 11.8828C33.9343 9.24023 35.1355 7.58203 37.7253 7.58203C38.5222 7.58203 39.2898 7.75195 39.9109 8.01562Z" fill="#19191A" fill-opacity="1.000000" transform="matrix(1 0 0 1 174.521 68.8118)"/><path d="M0 91.2943L12 91.2943M24 0L12 0L12 182.589L24 182.589" fill="none" stroke="#19191A" stroke-opacity="1.000000" stroke-width="2" stroke-dasharray="0 0" transform="matrix(1 0 0 1 342.515 60.0032)"/><path d="M0 91.2943L12 91.2943M24 0L12 0L12 182.589L24 182.589" fill="none" stroke="#19191A" stroke-opacity="1.000000" stroke-width="2" stroke-dasharray="0 0" transform="matrix(1 0 0 1 342.515 60.0032)"/><path d="M5.61328 26.9355Q7.69712 26.9355 8.89616 25.8884Q9.99023 24.933 9.99023 23.4492Q9.99023 22.0054 8.87702 21.1247Q8.17725 20.5711 6.31346 19.8616Q6.26981 19.845 6.25327 19.8387Q6.17511 19.8093 6.01627 19.7501Q4.62559 19.2311 4.09981 18.8763Q3.12891 18.2211 3.12891 17.2324Q3.12891 14.9824 5.88281 14.9824Q7.44026 14.9824 9.10533 16.2099L8.88281 16.5117L8.58192 16.2879L9.63661 14.8699L9.9375 15.0938L9.70927 15.3913Q7.90816 14.0098 5.88281 14.0098Q3.95264 14.0098 2.82075 14.9904Q1.76953 15.9012 1.76953 17.3262Q1.76953 19.4078 5.40836 20.7417Q8.63086 21.9861 8.63086 23.5664Q8.63086 25.9805 5.68945 25.9805Q3.58893 25.9805 1.58653 24.362L1.82227 24.0703L2.12256 24.2949L1.04443 25.7363L0.744141 25.5117L0.983006 25.2226Q3.05602 26.9355 5.61328 26.9355ZM5.61328 27.6855Q2.78625 27.6855 0.505275 25.8008L0.229848 25.5732L1.75518 23.5339L2.058 23.7787Q3.85413 25.2305 5.68945 25.2305Q7.88086 25.2305 7.88086 23.5664Q7.88086 22.5004 5.15023 21.4458Q1.01953 19.9317 1.01953 17.3262Q1.01953 15.5587 2.32964 14.4236Q3.67294 13.2598 5.88281 13.2598Q8.16267 13.2598 10.1657 14.7962L10.4589 15.0211L8.96086 17.0351L8.6603 16.8136Q7.1937 15.7324 5.88281 15.7324Q3.87891 15.7324 3.87891 17.2324Q3.87891 18.152 6.27848 19.0474Q6.43843 19.1071 6.52017 19.1378Q6.54023 19.1455 6.58027 19.1607Q8.552 19.9113 9.34234 20.5365Q10.7402 21.6424 10.7402 23.4492Q10.7402 25.2738 9.38949 26.4534Q7.97851 27.6855 5.61328 27.6855ZM5.61328 27.3105C3.76758 27.3105 1.99219 26.543 0.744141 25.5117L1.82227 24.0703C2.95312 24.9844 4.13086 25.6055 5.68945 25.6055C7.41797 25.6055 8.25586 24.6973 8.25586 23.5664C8.25586 22.248 6.7207 21.6504 5.2793 21.0938C3.45703 20.4258 1.39453 19.5352 1.39453 17.3262C1.39453 15.2637 3.04688 13.6348 5.88281 13.6348C7.48828 13.6348 8.90625 14.3027 9.9375 15.0938L8.88281 16.5117C7.96875 15.8379 7.05469 15.3574 5.88281 15.3574C4.24805 15.3574 3.50391 16.2246 3.50391 17.2324C3.50391 18.4805 4.92188 18.9375 6.38672 19.4883C8.2793 20.209 10.3652 20.9766 10.3652 23.4492C10.3652 25.5586 8.68945 27.3105 5.61328 27.3105ZM18.6968 26.9355Q20.8335 26.9355 22.8112 25.654L23.0152 25.9688L22.6864 26.1492L21.8954 24.7078L22.2242 24.5273L22.4343 24.8379Q20.8155 25.9336 18.9605 25.9336Q16.9409 25.9336 15.655 24.5814Q14.3798 23.2405 14.2676 21.0189L14.2477 20.625L23.4253 20.625L23.4253 21L23.0545 20.944Q23.1441 20.3508 23.1441 19.752Q23.1441 17.0614 21.8812 15.5374Q20.6154 14.0098 18.3335 14.0098Q16.1231 14.0098 14.5373 15.735Q12.8316 17.5907 12.8316 20.4961Q12.8316 23.4758 14.5499 25.2533Q16.1762 26.9355 18.6968 26.9355ZM18.6968 27.6855Q15.8581 27.6855 14.0107 25.7746Q12.0816 23.779 12.0816 20.4961Q12.0816 17.2984 13.9852 15.2274Q15.7938 13.2598 18.3335 13.2598Q20.9679 13.2598 22.4587 15.0588Q23.8941 16.7911 23.8941 19.752Q23.8941 20.4071 23.7961 21.056L23.748 21.375L14.6421 21.375L14.6421 21L15.0166 20.9811Q15.1149 22.925 16.1985 24.0646Q17.2627 25.1836 18.9605 25.1836Q20.5855 25.1836 22.014 24.2168L22.3549 23.9861L23.5116 26.0939L23.2191 26.2835Q21.0552 27.6855 18.6968 27.6855ZM14.2456 19.4032Q14.451 17.3993 15.6262 16.1883Q16.7679 15.0117 18.3628 15.0117Q21.9722 15.0117 21.9722 19.4414L21.9722 19.8164L14.2033 19.8164L14.2456 19.4032ZM14.9917 19.4796L14.6187 19.4414L14.6187 19.0664L21.5972 19.0664L21.5972 19.4414L21.2222 19.4414Q21.2222 15.7617 18.3628 15.7617Q17.0852 15.7617 16.1644 16.7106Q15.1706 17.7348 14.9917 19.4796ZM14.6187 19.4414L21.5972 19.4414C21.5972 16.7988 20.4019 15.3867 18.3628 15.3867C16.5113 15.3867 14.8824 16.8691 14.6187 19.4414ZM18.6968 27.3105C15.2398 27.3105 12.4566 24.791 12.4566 20.4961C12.4566 16.2715 15.3101 13.6348 18.3335 13.6348C21.6499 13.6348 23.5191 16.0312 23.5191 19.752C23.5191 20.2324 23.4722 20.6895 23.4253 21L14.6421 21C14.7827 23.7832 16.4878 25.5586 18.9605 25.5586C20.232 25.5586 21.2632 25.1777 22.2242 24.5273L23.0152 25.9688C21.8667 26.7129 20.4722 27.3105 18.6968 27.3105ZM29.0396 26.9355Q29.7515 26.9355 30.173 26.7686L30.3111 27.1172L29.9424 27.1855L29.6319 25.5097L30.0006 25.4414L30.0724 25.8095Q29.7966 25.8633 29.5435 25.8633Q28.5475 25.8633 28.5475 24.5508L28.5475 7.89844L28.9225 7.89844L28.9225 8.27344L26.7369 8.27344L26.7369 7.89844L27.1119 7.89844L27.1119 24.4102Q27.1119 26.9355 29.0396 26.9355ZM29.0396 27.6855Q26.3619 27.6855 26.3619 24.4102L26.3619 7.52344L29.2975 7.52344L29.2975 24.5508Q29.2975 25.1133 29.5435 25.1133Q29.7241 25.1133 29.9288 25.0733L30.3003 25.0008L30.7361 27.3522L30.4493 27.4658Q29.8947 27.6855 29.0396 27.6855ZM29.0396 27.3105C27.4107 27.3105 26.7369 26.2559 26.7369 24.4102L26.7369 7.89844L28.9225 7.89844L28.9225 24.5508C28.9225 25.2246 29.2096 25.4883 29.5435 25.4883C29.6666 25.4883 29.7603 25.4883 30.0006 25.4414L30.3111 27.1172C30.0006 27.2402 29.6139 27.3105 29.0396 27.3105ZM39.7643 8.36081Q38.8132 7.95703 37.7253 7.95703Q34.3093 7.95703 34.3093 11.8828L34.3093 14.3198L32.1836 14.4601L32.1589 14.0859L32.5339 14.0859L32.5339 15.7441L32.1589 15.7441L32.1589 15.3691L34.3093 15.3691L34.3093 27L33.9343 27L33.9343 26.625L36.1199 26.625L36.1199 27L35.7449 27L35.7449 15.3691L38.8796 15.3691L38.8796 15.7441L38.5046 15.7441L38.5046 13.9688L38.8796 13.9688L38.8796 14.3438L35.7449 14.3438L35.7449 11.9062Q35.7449 8.95898 37.9656 8.95898Q38.7579 8.95898 39.5846 9.33201L39.4304 9.67383L39.0702 9.56946L39.5507 7.91126L39.9109 8.01562L39.7643 8.36081ZM40.3636 7.80045L39.6703 10.1935L39.2762 10.0156Q38.5965 9.70899 37.9656 9.70898Q36.4949 9.70898 36.4949 11.9062L36.4949 13.9688L36.1199 13.9688L36.1199 13.5938L39.2546 13.5938L39.2546 16.1191L36.1199 16.1191L36.1199 15.7441L36.4949 15.7441L36.4949 27.375L33.5593 27.375L33.5593 15.7441L33.9343 15.7441L33.9343 16.1191L31.7839 16.1191L31.7839 13.7349L33.9096 13.5946L33.9343 13.9688L33.5593 13.9688L33.5593 11.8828Q33.5593 7.20703 37.7253 7.20703Q38.9658 7.20703 40.0574 7.67044L40.3636 7.80045ZM39.9109 8.01562L39.4304 9.67383C38.9499 9.45703 38.4226 9.33398 37.9656 9.33398C36.7175 9.33398 36.1199 10.2246 36.1199 11.9062L36.1199 13.9688L38.8796 13.9688L38.8796 15.7441L36.1199 15.7441L36.1199 27L33.9343 27L33.9343 15.7441L32.1589 15.7441L32.1589 14.0859L33.9343 13.9688L33.9343 11.8828C33.9343 9.24023 35.1355 7.58203 37.7253 7.58203C38.5222 7.58203 39.2898 7.75195 39.9109 8.01562Z" fill="#19191A" fill-opacity="1.000000" transform="matrix(1 0 0 1 396.131 81.7975)"/><path d="M7.94531 26.9355Q10.134 26.9355 11.6167 25.221Q13.2305 23.355 13.2305 20.2559Q13.2305 17.3349 11.973 15.6779Q10.7071 14.0098 8.40234 14.0098Q6.56721 14.0098 4.5654 15.7626L3.91557 16.3316L4.01973 13.1187L4.39453 13.1309L4.01953 13.1309L4.01953 7.89844L4.39453 7.89844L4.39453 8.27344L2.20898 8.27344L2.20898 7.89844L2.58398 7.89844L2.58398 27L2.20898 27L2.20898 26.625L3.96094 26.625L3.96094 27L3.58977 26.9465L3.82946 25.2832L4.37013 25.2832L4.47756 25.3814Q6.17853 26.9355 7.94531 26.9355ZM7.94531 27.6855Q5.88749 27.6855 3.97166 25.935L4.22461 25.6582L4.22461 26.0332L4.1543 26.0332L4.1543 25.6582L4.52546 25.7117L4.28577 27.375L1.83398 27.375L1.83398 7.52344L4.76953 7.52344L4.76953 13.1369L4.69316 15.4926L4.31836 15.4805L4.07132 15.1983Q6.28526 13.2598 8.40234 13.2598Q11.0795 13.2598 12.5705 15.2245Q13.9805 17.0826 13.9805 20.2559Q13.9805 23.6343 12.184 25.7116Q10.477 27.6855 7.94531 27.6855ZM7.58203 25.8633Q5.80609 25.8633 4.14638 24.3983L4.01953 24.2864L4.01953 17.1176L4.13716 17.0066Q6.15175 15.1055 7.89844 15.1055Q11.7012 15.1055 11.7012 20.3027Q11.7012 22.8143 10.5653 24.335Q9.42384 25.8633 7.58203 25.8633ZM7.58203 25.1133Q9.04791 25.1133 9.96445 23.8862Q10.9512 22.5651 10.9512 20.3027Q10.9512 15.8555 7.89844 15.8555Q6.44975 15.8555 4.6519 17.552L4.39453 17.2793L4.76953 17.2793L4.76953 24.1172L4.39453 24.1172L4.64269 23.836Q6.08973 25.1133 7.58203 25.1133ZM7.58203 25.4883C9.74414 25.4883 11.3262 23.543 11.3262 20.3027C11.3262 17.4258 10.3652 15.4805 7.89844 15.4805C6.79102 15.4805 5.64258 16.1016 4.39453 17.2793L4.39453 24.1172C5.54297 25.1309 6.7207 25.4883 7.58203 25.4883ZM7.94531 27.3105C6.74414 27.3105 5.37891 26.7129 4.22461 25.6582L4.1543 25.6582L3.96094 27L2.20898 27L2.20898 7.89844L4.39453 7.89844L4.39453 13.1309L4.31836 15.4805C5.49609 14.4492 6.96094 13.6348 8.40234 13.6348C11.7832 13.6348 13.6055 16.2715 13.6055 20.2559C13.6055 24.7441 10.9453 27.3105 7.94531 27.3105ZM19.3437 26.9355Q20.0556 26.9355 20.477 26.7686L20.6152 27.1172L20.2464 27.1855L19.9359 25.5097L20.3046 25.4414L20.3764 25.8095Q20.1006 25.8633 19.8476 25.8633Q18.8515 25.8633 18.8515 24.5508L18.8515 7.89844L19.2265 7.89844L19.2265 8.27344L17.0409 8.27344L17.0409 7.89844L17.4159 7.89844L17.4159 24.4102Q17.4159 26.9355 19.3437 26.9355ZM19.3437 27.6855Q16.6659 27.6855 16.6659 24.4102L16.6659 7.52344L19.6015 7.52344L19.6015 24.5508Q19.6015 25.1133 19.8476 25.1133Q20.0281 25.1133 20.2328 25.0733L20.6044 25.0008L21.0401 27.3522L20.7533 27.4658Q20.1987 27.6855 19.3437 27.6855ZM19.3437 27.3105C17.7148 27.3105 17.0409 26.2559 17.0409 24.4102L17.0409 7.89844L19.2265 7.89844L19.2265 24.5508C19.2265 25.2246 19.5136 25.4883 19.8476 25.4883C19.9706 25.4883 20.0644 25.4883 20.3046 25.4414L20.6152 27.1172C20.3046 27.2402 19.9179 27.3105 19.3437 27.3105ZM28.9434 26.9355Q31.295 26.9355 32.8933 25.2636Q34.6153 23.4622 34.6153 20.4961Q34.6153 17.5113 32.8923 15.6954Q31.2931 14.0098 28.9434 14.0098Q26.5938 14.0098 24.9945 15.6954Q23.2715 17.5113 23.2715 20.4961Q23.2715 23.4622 24.9935 25.2636Q26.5919 26.9355 28.9434 26.9355ZM28.9434 27.6855Q26.2713 27.6855 24.4514 25.7818Q22.5215 23.763 22.5215 20.4961Q22.5215 17.2122 24.4504 15.1791Q26.2715 13.2598 28.9434 13.2598Q31.6153 13.2598 33.4364 15.1791Q35.3653 17.2122 35.3653 20.4961Q35.3653 23.763 33.4354 25.7818Q31.6156 27.6855 28.9434 27.6855ZM28.9434 25.8633Q27.0634 25.8633 25.9145 24.3433Q24.8008 22.8699 24.8008 20.4961Q24.8008 18.1186 25.9131 16.6274Q27.0657 15.082 28.9434 15.082Q30.8226 15.082 31.9845 16.6261Q33.1094 18.121 33.1094 20.4961Q33.1094 22.8675 31.9831 24.3446Q30.8249 25.8633 28.9434 25.8633ZM28.9434 25.1133Q30.4537 25.1133 31.3867 23.8898Q32.3594 22.6142 32.3594 20.4961Q32.3594 18.3717 31.3852 17.077Q30.4484 15.832 28.9434 15.832Q27.4419 15.832 26.5143 17.0758Q25.5508 18.3675 25.5508 20.4961Q25.5508 22.6184 26.5128 23.8911Q27.4367 25.1133 28.9434 25.1133ZM28.9434 25.4883C31.1993 25.4883 32.7344 23.4961 32.7344 20.4961C32.7344 17.4961 31.1993 15.457 28.9434 15.457C26.6876 15.457 25.1758 17.4961 25.1758 20.4961C25.1758 23.4961 26.6876 25.4883 28.9434 25.4883ZM28.9434 27.3105C25.7501 27.3105 22.8965 24.8145 22.8965 20.4961C22.8965 16.1543 25.7501 13.6348 28.9434 13.6348C32.1368 13.6348 34.9903 16.1543 34.9903 20.4961C34.9903 24.8145 32.1368 27.3105 28.9434 27.3105ZM43.5577 26.9355Q45.8136 26.9355 47.5052 25.382L47.7589 25.6582L47.443 25.8603L46.5055 24.3955L46.8214 24.1934L47.0743 24.4702Q45.5496 25.8633 43.7511 25.8633Q41.7704 25.8633 40.5455 24.3534Q39.3448 22.8733 39.3448 20.4961Q39.3448 18.1289 40.5878 16.6137Q41.8444 15.082 43.7979 15.082Q45.2655 15.082 46.6692 16.3572L46.4171 16.6348L46.1197 16.4064L47.2447 14.9415L47.5421 15.1699L47.2943 15.4514Q45.657 14.0098 43.7276 14.0098Q41.2663 14.0098 39.601 15.7004Q37.8155 17.5131 37.8155 20.4961Q37.8155 23.5034 39.4777 25.2654Q41.0533 26.9355 43.5577 26.9355ZM43.5577 27.6855Q40.7297 27.6855 38.9321 25.78Q37.0655 23.8013 37.0655 20.4961Q37.0655 17.2057 39.0667 15.1741Q40.9523 13.2598 43.7276 13.2598Q45.9401 13.2598 47.7899 14.8885L48.0531 15.1202L46.4664 17.1862L46.1649 16.9123Q44.9757 15.832 43.7979 15.832Q42.1992 15.832 41.1677 17.0894Q40.0948 18.3972 40.0948 20.4961Q40.0948 22.6074 41.128 23.8809Q42.1277 25.1133 43.7511 25.1133Q45.2586 25.1133 46.5684 23.9165L46.8972 23.6161L48.2445 25.7214L48.0125 25.9344Q46.1057 27.6855 43.5577 27.6855ZM43.5577 27.3105C40.1065 27.3105 37.4405 24.8145 37.4405 20.4961C37.4405 16.1543 40.3936 13.6348 43.7276 13.6348C45.4327 13.6348 46.6104 14.3496 47.5421 15.1699L46.4171 16.6348C45.6495 15.9375 44.8585 15.457 43.7979 15.457C41.4483 15.457 39.7198 17.4961 39.7198 20.4961C39.7198 23.4961 41.3546 25.4883 43.7511 25.4883C44.9522 25.4883 46.0069 24.9375 46.8214 24.1934L47.7589 25.6582C46.6104 26.7129 45.1221 27.3105 43.5577 27.3105ZM50.6408 26.625L52.7971 26.625L52.7971 27L52.4221 27L52.4221 23.4275L55.2984 20.0765L59.3871 26.8053L59.0666 27L59.0666 26.625L61.4397 26.625L61.4397 27L61.123 27.2008L56.0311 19.1708L60.5777 13.7283L60.8654 13.9688L60.8654 14.3438L58.4397 14.3438L58.4397 13.9688L58.7308 14.2051L53.0284 21.2285L52.4221 21.2285L52.4221 7.89844L52.7971 7.89844L52.7971 8.27344L50.6408 8.27344L50.6408 7.89844L51.0158 7.89844L51.0158 27L50.6408 27L50.6408 26.625ZM50.2658 27.375L50.2658 7.52344L53.1721 7.52344L53.1721 20.8535L52.7971 20.8535L52.7971 20.4785L52.8498 20.4785L52.8498 20.8535L52.5587 20.6171L58.2611 13.5938L61.6674 13.5938L56.7821 19.4416L56.4944 19.2012L56.8111 19.0004L62.1215 27.375L58.8557 27.375L54.9258 20.9076L55.2463 20.7129L55.5309 20.9571L53.0816 23.8106L52.7971 23.5664L53.1721 23.5664L53.1721 27.375L50.6408 27.375L50.2658 27.375ZM50.6408 27L50.6408 7.89844L52.7971 7.89844L52.7971 20.8535L52.8498 20.8535L58.4397 13.9688L60.8654 13.9688L56.4944 19.2012L61.4397 27L59.0666 27L55.2463 20.7129L52.7971 23.5664L52.7971 27L50.6408 27Z" fill="#19191A" fill-opacity="1.000000" transform="matrix(1 0 0 1 384.875 184.797)"/><path d="M0 0L-6 10.392L-6 10.3917Q-5.65979 10.1953 -5.30746 10.0215Q-4.95514 9.84778 -4.5922 9.69745Q-4.22927 9.54711 -3.85727 9.42084Q-3.48528 9.29457 -3.10583 9.19289Q-2.72638 9.09122 -2.34108 9.01458Q-1.95579 8.93794 -1.56631 8.88666Q-1.17684 8.83539 -0.784838 8.80969Q-0.39284 8.784 -5.11073e-07 8.784Q0.392839 8.784 0.784837 8.80969Q1.17684 8.83539 1.56631 8.88666Q1.95579 8.93794 2.34108 9.01458Q2.72637 9.09122 3.10583 9.19289Q3.48528 9.29457 3.85727 9.42084Q4.22926 9.54711 4.5922 9.69745Q4.95514 9.84778 5.30746 10.0215Q5.65979 10.1953 6 10.3917L0 0Z" transform="matrix(1 0 0 1 425.074 120.801)" fill="#F94737" fill-opacity="1.000000" stroke="none"/><path d="M0 6L0 63.9965" fill="none" stroke="#F94737" stroke-opacity="1.000000" stroke-width="2" stroke-dasharray="0 0" transform="matrix(1 0 0 1 425.074 120.801)"/><path d="M0 63.9965L6 53.6045L6 53.6048Q5.65979 53.8012 5.30746 53.9749Q4.95514 54.1487 4.5922 54.299Q4.22927 54.4493 3.85727 54.5756Q3.48528 54.7019 3.10583 54.8036Q2.72638 54.9052 2.34108 54.9819Q1.95579 55.0585 1.56631 55.1098Q1.17684 55.1611 0.784838 55.1868Q0.39284 55.2125 5.11073e-07 55.2125Q-0.392839 55.2125 -0.784837 55.1868Q-1.17684 55.1611 -1.56631 55.1098Q-1.95579 55.0585 -2.34108 54.9819Q-2.72637 54.9052 -3.10583 54.8036Q-3.48528 54.7019 -3.85727 54.5756Q-4.22926 54.4493 -4.5922 54.299Q-4.95514 54.1487 -5.30746 53.9749Q-5.65979 53.8012 -6 53.6048L0 63.9965Z" transform="matrix(1 0 0 1 407.557 119.738)" fill="#F94737" fill-opacity="1.000000" stroke="none"/><path d="M0 0L0 57.9965" fill="none" stroke="#F94737" stroke-opacity="1.000000" stroke-width="2" stroke-dasharray="0 0" transform="matrix(1 0 0 1 407.557 119.738)"/></svg>